<?xml version="1.0" encoding="UTF-8"?>
<!DOCTYPE svg PUBLIC "-//W3C//DTD SVG 1.1//EN" "http://www.w3.org/Graphics/SVG/1.1/DTD/svg11.dtd">
<!-- Creator: CorelDRAW -->
<svg xmlns="http://www.w3.org/2000/svg" xml:space="preserve" width="2048px" height="2048px" style="shape-rendering:geometricPrecision; text-rendering:geometricPrecision; image-rendering:optimizeQuality; fill-rule:evenodd; clip-rule:evenodd"
viewBox="0 0 2048 2048"
 xmlns:xlink="http://www.w3.org/1999/xlink">
 <defs>
  <style type="text/css">
   <![CDATA[
    .fil2 {fill:none}
    .fil8 {fill:#0091EA}
    .fil11 {fill:#01A6F6}
    .fil10 {fill:#04A8FF}
    .fil1 {fill:#512DA8}
    .fil0 {fill:#7E57C2}
    .fil5 {fill:#C57040}
    .fil4 {fill:#E08045}
    .fil3 {fill:#FFAF68}
    .fil6 {fill:#FFF8E1}
    .fil9 {fill:#00B0FF;fill-rule:nonzero}
    .fil7 {fill:#E08045;fill-rule:nonzero}
   ]]>
  </style>
   <clipPath id="id0">
    <path d="M1024 -0.0011811c565.541,0 1024,458.461 1024,1024 0,565.541 -458.461,1024 -1024,1024 -565.541,0 -1024,-458.461 -1024,-1024 0,-565.541 458.461,-1024 1024,-1024z"/>
   </clipPath>
 </defs>
 <g id="Layer_x0020_1">
  <metadata id="CorelCorpID_0Corel-Layer"/>
  <path class="fil0" d="M1024 -0.0011811c565.541,0 1024,458.461 1024,1024 0,565.541 -458.461,1024 -1024,1024 -565.541,0 -1024,-458.461 -1024,-1024 0,-565.541 458.461,-1024 1024,-1024z"/>
  <g style="clip-path:url(#id0)">
   <g id="_517132912">
    <g>
     <polygon id="_3738919601" class="fil1" points="1372.18,488.783 2508.06,1624.67 2508.06,1713.18 1372.18,577.3 "/>
     <polygon id="_373892008" class="fil1" points="1416.25,1561.63 2552.13,2697.51 2552.01,2699.8 2551.67,2702.02 2551.12,2704.16 2550.37,2706.22 2549.43,2708.17 2548.31,2710.02 2547.02,2711.74 2545.57,2713.33 2543.99,2714.77 2542.26,2716.06 2540.42,2717.18 2538.46,2718.12 2536.41,2718.88 2534.26,2719.43 2532.04,2719.77 2529.76,2719.88 1393.87,1584 1396.16,1583.88 1398.38,1583.55 1400.53,1582.99 1402.58,1582.24 1404.54,1581.3 1406.38,1580.18 1408.1,1578.89 1409.69,1577.45 1411.14,1575.86 1412.42,1574.14 1413.55,1572.29 1414.49,1570.34 1415.24,1568.28 1415.79,1566.14 1416.13,1563.92 "/>
     <polygon id="_373892632" class="fil1" points="1393.87,1584 2529.76,2719.88 1888.5,2719.88 752.617,1584 "/>
     <polygon id="_373892296" class="fil1" points="752.617,1584 1888.5,2719.88 1876.09,2719.88 740.206,1584 "/>
     <polygon id="_373892392" class="fil1" points="737.356,1583.95 1873.24,2719.83 1872.46,2719.82 1871.67,2719.77 1870.89,2719.7 1870.1,2719.6 1869.32,2719.48 1868.53,2719.32 1867.75,2719.14 1866.96,2718.92 731.079,1583.04 731.865,1583.25 732.65,1583.44 733.437,1583.6 734.223,1583.72 735.009,1583.82 735.793,1583.89 736.576,1583.93 "/>
     <polygon id="_373892560" class="fil1" points="740.206,1584 1876.09,2719.88 1873.24,2719.88 737.356,1584 "/>
     <polygon id="_373893136" class="fil1" points="731.079,1583.04 1866.96,2718.92 1864.19,2718.08 1861.46,2717.22 1858.77,2716.33 1856.11,2715.41 1853.49,2714.46 1850.91,2713.49 1848.37,2712.49 1845.86,2711.45 1843.39,2710.4 1840.95,2709.31 1838.56,2708.19 1836.2,2707.05 1833.88,2705.88 1831.6,2704.68 1829.35,2703.45 1827.14,2702.19 1824.97,2700.9 1822.84,2699.59 1820.75,2698.24 1818.69,2696.87 1816.68,2695.47 1814.7,2694.04 1812.76,2692.57 1810.85,2691.08 1808.99,2689.56 673.11,1553.68 674.973,1555.2 676.875,1556.69 678.815,1558.15 680.794,1559.58 682.811,1560.99 684.867,1562.36 686.96,1563.71 689.092,1565.02 691.262,1566.31 693.469,1567.56 695.715,1568.79 697.998,1570 700.319,1571.17 702.676,1572.31 705.073,1573.43 707.506,1574.51 709.977,1575.57 712.484,1576.6 715.029,1577.61 717.612,1578.58 720.232,1579.53 722.888,1580.45 725.581,1581.34 728.312,1582.2 "/>
     <polygon id="_373893160" class="fil1" points="1366.51,473.553 2502.4,1609.44 2503.25,1610.48 2504.04,1611.58 2504.77,1612.72 2505.43,1613.91 2506.03,1615.13 2506.55,1616.4 2507,1617.7 2507.38,1619.04 2507.67,1620.4 2507.89,1621.8 2508.02,1623.22 2508.06,1624.67 1372.18,488.783 1372.14,487.339 1372,485.918 1371.79,484.522 1371.5,483.155 1371.12,481.819 1370.67,480.517 1370.15,479.25 1369.55,478.023 1368.89,476.837 1368.16,475.695 1367.37,474.599 "/>
     <polygon id="_373893064" class="fil1" points="1416.25,599.665 2552.13,1735.55 2552.13,2697.51 1416.25,1561.63 "/>
     <polygon id="_373893280" class="fil1" points="1405.92,577.293 2541.8,1713.17 2545.78,1719.94 1409.9,584.057 "/>
     <polygon id="_373893472" class="fil1" points="1410.62,584.829 2546.5,1720.71 2547.18,1721.52 2547.82,1722.36 2548.43,1723.22 2548.99,1724.12 2549.51,1725.05 2549.99,1726 2550.43,1726.98 2550.81,1727.98 2551.15,1729 2551.45,1730.05 2551.69,1731.11 2551.88,1732.2 2552.01,1733.3 2552.1,1734.42 2552.13,1735.55 1416.25,599.665 1416.22,598.534 1416.13,597.416 1416,596.315 1415.81,595.232 1415.56,594.167 1415.27,593.122 1414.93,592.097 1414.54,591.095 1414.11,590.118 1413.63,589.165 1413.11,588.24 1412.55,587.341 1411.94,586.473 1411.3,585.636 "/>
    </g>
    <path id="_517134088" class="fil1" d="M1416.25 599.665l0 961.964c0,12.3555 -10.0169,22.3713 -22.3713,22.3713l-641.258 0 -12.411 0 -2.85 0 0 -0.0519685c-2.0752,-0.00236221 -4.18465,-0.295276 -6.27638,-0.90945 -29.7118,-8.77678 -53.1591,-22.2284 -69.9296,-40.8331 -17.0516,-18.9154 -26.7933,-42.4819 -28.7823,-71.1296 -0.126378,-0.96378 -0.19252,-1.9441 -0.19252,-2.94213l0 -913.028c-2.2004,-17.6043 4.38189,-33.5729 16.598,-46.2437 21.9933,-22.8095 70.9477,-41.4697 158.008,-43.2107 179.731,-3.58583 362.302,-0.21378 542.347,-0.21378 5.03386,0 9.68032,1.66299 13.4185,4.47048 5.83701,4.23544 9.63308,11.113 9.63308,18.8752l0 88.5166 33.7382 -0.00708662 3.98032 6.76418c3.92717,4.02992 6.34725,9.53741 6.34725,15.6083z"/>
   </g>
  </g>
  <path class="fil2" d="M1024 -0.0011811c565.541,0 1024,458.461 1024,1024 0,565.541 -458.461,1024 -1024,1024 -565.541,0 -1024,-458.461 -1024,-1024 0,-565.541 458.461,-1024 1024,-1024z"/>
  <path class="fil3" d="M740.206 577.426l665.712 -0.133465 3.98032 6.76418c3.92717,4.02992 6.34725,9.53741 6.34725,15.6083l0 961.964c0,12.3555 -10.0169,22.3713 -22.3713,22.3713l-653.669 0 0 -1006.57z"/>
  <path class="fil4" d="M734.329 577.432l5.87481 -0.0011811 0 1006.34c-2.97047,0.382677 -6.06615,0.170079 -9.12402,-0.72756 -29.7118,-8.77678 -53.1591,-22.2284 -69.9296,-40.8331 -17.0516,-18.9154 -26.7933,-42.4819 -28.7823,-71.1296 -0.126378,-0.96378 -0.19252,-1.9441 -0.19252,-2.94213l0 -913.028c-2.2004,-17.6043 4.38189,-33.5729 16.598,-46.2437 21.9933,-22.8095 70.9477,-41.4697 158.008,-43.2107 179.731,-3.58583 362.302,-0.21378 542.347,-0.21378 10.2661,0 18.9177,6.91772 21.5492,16.3441 4.90985,11.263 -4.11969,24.0697 -18.5965,27.2752 -9.9945,0.62126 -18.4547,1.12441 -28.3299,1.12795l-524.176 0.216142c-12.5705,0.69567 -55.7292,-0.466536 -87.032,7.52008 -68.6162,17.5075 -29.7296,59.6977 21.7854,59.5111z"/>
  <path class="fil5" d="M737.356 564.471l0 1019.53 15.261 0 0 -1018.92c-0.574016,0.141732 -1.15748,0.231496 -1.75158,0.263386 -4.61811,0.249213 -9.13465,-0.0625985 -13.5095,-0.869292z"/>
  <path class="fil6" d="M1339.95 510.45l-21.5079 0.00944883 -525.749 0.211417c-75.7323,0.0295276 -112.109,12.7996 -116.665,31.3914 -3.5374,14.4366 10.2898,35.7874 51.4181,35.6386 0.519685,-0.0897638 1.01575,-0.138189 1.47756,-0.138189l613.568 0 -2.54173 -67.1127z"/>
  <path class="fil7" d="M1372.18 488.783c0,-12.8705 -10.435,-23.3055 -23.3055,-23.3055 -12.8705,0 -23.3043,10.435 -23.3043,23.3055l0 20.7673 0 68.0079 46.6099 0 0 -88.7753z"/>
  <rect class="fil5" x="937.43" y="809.699" width="264.005" height="28.12"/>
  <rect class="fil5" x="838.817" y="887.026" width="461.23" height="28.12"/>
  <ellipse class="fil8" cx="1084.52" cy="1021.76" rx="69.3121" ry="6.86081"/>
  <path class="fil9" d="M1005.95 1368.81c-3.69685,1.80118 -5.23583,6.25749 -3.43465,9.95552 0.0259843,0.0543308 1.57323,0.144095 4.32284,0.257481l159.54 0c1.72087,-3.63662 0.226772,-7.99843 -3.38977,-9.8067 -8.98111,-4.50591 -20.9646,-8.19686 -34.8792,-10.7079 -13.2591,-2.39292 -28.2496,-3.74882 -44.0209,-3.74882 -15.6331,0 -30.4134,1.30866 -43.4445,3.62126 -13.7788,2.44606 -25.6855,6.04016 -34.6937,10.4291z"/>
  <path class="fil9" d="M1170.55 1059.69c-4.09489,-14.2276 -9.84331,-27.2044 -16.8969,-38.452 -10.1504,2.13898 -20.6032,3.82087 -31.3028,5.00788 -12.4122,1.37599 -25.0855,2.0941 -37.9217,2.0941 -12.8374,0 -25.5106,-0.718111 -37.9229,-2.0941 -10.6996,-1.18701 -21.1524,-2.8689 -31.3028,-5.00788 -7.05355,11.2476 -12.802,24.2244 -16.8969,38.452 -4.50118,15.6366 -6.97914,32.7461 -6.97914,50.6953 0,37.4138 10.7457,71.165 28.1173,95.4875 16.8059,23.5288 39.7961,38.0811 64.9843,38.0811 25.187,0 48.1772,-14.5524 64.9831,-38.0811 17.3717,-24.3225 28.1173,-58.0737 28.1173,-95.4875 0,-17.9492 -2.47795,-35.0587 -6.97914,-50.6953z"/>
  <path class="fil9" d="M1075.97 1243.4c0,31.5036 -5.32678,75.4371 -5.32678,111.728 0,11.8063 27.5799,11.8063 27.5799,0 0,-36.2906 -5.32678,-80.2241 -5.32678,-111.728 -0.16063,-7.02048 -17.0894,-6.95788 -16.9264,0z"/>
  <path class="fil10" d="M1149.41 1205.87c17.3728,-24.3213 28.1185,-58.0725 28.1185,-95.4875 0,-17.9492 -2.47795,-35.0587 -6.97914,-50.6953 -4.09607,-14.2276 -9.84331,-27.2044 -16.898,-38.452 -10.1492,2.13898 -20.602,3.82087 -31.3016,5.00788 -12.4122,1.37599 -25.0855,2.0941 -37.9217,2.0941l0 209.819c4.19174,0.0259843 8.38347,1.76575 8.4626,5.24292 21.8504,-2.85827 41.6162,-16.6642 56.5193,-37.5296z"/>
  <path class="fil11" d="M1098.22 1355.13c0,-36.2906 -5.32678,-80.2241 -5.32678,-111.728 -0.0791339,-3.47599 -4.27087,-5.21575 -8.4626,-5.24174l0 5.79449 0 110.809 0 9.22087c6.8941,0 13.7894,-2.95158 13.7894,-8.85473z"/>
  <path class="fil11" d="M1166.38 1379.03c1.72087,-3.63662 0.226772,-7.99843 -3.38977,-9.8067 -8.98111,-4.50591 -20.9646,-8.19686 -34.8792,-10.7079 -9.2315,-1.66654 -19.3028,-2.82992 -29.8925,-3.38268 0,5.90315 -6.89528,8.85473 -13.7894,8.85473l0 15.0425 81.9509 0z"/>
 </g>
</svg>
