<?xml version="1.0" encoding="utf-8"?>
<!-- Generator: Adobe Illustrator 16.0.0, SVG Export Plug-In . SVG Version: 6.00 Build 0)  -->
<!DOCTYPE svg PUBLIC "-//W3C//DTD SVG 1.1//EN" "http://www.w3.org/Graphics/SVG/1.1/DTD/svg11.dtd">
<svg version="1.1" xmlns="http://www.w3.org/2000/svg" xmlns:xlink="http://www.w3.org/1999/xlink" x="0px" y="0px" width="64px"
	 height="64px" viewBox="0 0 64 64" enable-background="new 0 0 64 64" xml:space="preserve">
<g id="_x35_0_fairy_x2C__wing_x2C__fairy_x2C__tale_x2C__legend_x2C__fantasy">
</g>
<g id="_x34_9_gingerbread_x2C__house_x2C__fairy_x2C__tale_x2C__legend_x2C__fantasy">
</g>
<g id="_x34_8_torch_x2C__fire_x2C__fairy_x2C__tale_x2C__legend_x2C__fantasy">
</g>
<g id="_x34_7_armor_x2C__knight_x2C__fairy_x2C__tale_x2C__legend_x2C__fantasy">
</g>
<g id="_x34_6_jester_x2C__joker_x2C__joke_x2C__fairy_x2C__tale_x2C__legend_x2C__fantasy">
</g>
<g id="_x34_5_shield_x2C__knight_x2C__crown_x2C__fairy_x2C__tale_x2C__legend_x2C__fantasy">
</g>
<g id="_x34_4_spear_x2C__knight_x2C__weapon_x2C__duel_x2C__war_x2C__fairy_x2C__tale">
</g>
<g id="_x34_3_coach_x2C__pumpkin_x2C__magic_x2C__fairy_x2C__tale_x2C__legend_x2C__fantasy">
</g>
<g id="_x34_2_sword_x2C__magic_x2C__fairy_x2C__tale_x2C__legend_x2C__fantasy">
</g>
<g id="_x34_1_dagger_x2C__blood_x2C__weapon_x2C__fairy_x2C__tale_x2C__legend_x2C__fantasy">
</g>
<g id="_x34_0_ax_x2C__weapon_x2C__war_x2C__fairy_x2C__tale_x2C__legend_x2C__fantasy">
</g>
<g id="_x33_9_ax_x2C__weapon_x2C__fairy_x2C__tale_x2C__legend_x2C__fantasy">
</g>
<g id="_x33_8_standard_x2C__flag_x2C__crown_x2C__fairy_x2C__tale_x2C__legend_x2C__fantasy">
</g>
<g id="_x33_7_trumpet_x2C__flag_x2C__crown_x2C__fairy_x2C__tale_x2C__legend_x2C__fantasy">
</g>
<g id="_x33_6_flag_x2C__crown_x2C__fairy_x2C__tale_x2C__legend_x2C__fantasy">
</g>
<g id="_x33_5_bow_x2C__arrow_x2C__weapon_x2C__fairy_x2C__tale_x2C__legend_x2C__fantasy">
</g>
<g id="_x33_4_crossbow_x2C__arrow_x2C__weapon_x2C__fairy_x2C__tale_x2C__legend_x2C__fantasy">
</g>
<g id="_x33_3_helmet_x2C__knight_x2C__fairy_x2C__tale_x2C__legend_x2C__fantasy">
</g>
<g id="_x33_2_palace_x2C__castle_x2C__fairy_x2C__tale_x2C__legend_x2C__fantasy">
</g>
<g id="_x33_1_stained_x2C__glass_x2C__window_x2C__sword_x2C__fairy_x2C__tale_x2C__legend">
</g>
<g id="_x33_0_little_x2C__red_x2C__riding_x2C__hood_x2C__girl_x2C__fairy_x2C__tale">
</g>
<g id="_x32_9_medusa_x2C__snake_x2C__hair_x2C__fairy_x2C__tale_x2C__legend_x2C__fantasy">
</g>
<g id="_x32_8_tower_x2C__hair_x2C__fairy_x2C__tale_x2C__legend_x2C__fantasy">
</g>
<g id="_x32_7_mirror_x2C__magic_x2C__fairy_x2C__tale_x2C__legend_x2C__fantasy">
</g>
<g id="_x32_6_ring_x2C__magic_x2C__diamond_x2C__fairy_x2C__tale_x2C__legend_x2C__fantasy">
</g>
<g id="_x32_5_sword_x2C__stone_x2C__magic_x2C__fairy_x2C__tale_x2C__legend_x2C__fantasy">
</g>
<g id="_x32_4_wizard_x2C__magician_x2C__staff_x2C__fairy_x2C__tale_x2C__legend_x2C__fantasy">
</g>
<g id="_x32_3_witch_x2C__cat_x2C__potion_x2C__fairy_x2C__tale_x2C__legend_x2C__fantasy">
</g>
<g id="_x32_2_vampire_x2C__fangs_x2C__fairy_x2C__tale_x2C__legend_x2C__fantasy">
</g>
<g id="_x32_1_leprechaun_x2C__gold_x2C__coin_x2C__fairy_x2C__tale_x2C__legend_x2C__fantasy">
</g>
<g id="_x32_0_rainbow_x2C__bird_x2C__sun_x2C__fairy_x2C__tale_x2C__legend_x2C__fantasy">
</g>
<g id="_x31_9_satyr_x2C__horn_x2C__fairy_x2C__tale_x2C__legend_x2C__fantasy">
</g>
<g id="_x31_8_lamp_x2C__jinn_x2C__magic_x2C__fairy_x2C__tale_x2C__legend_x2C__fantasy">
</g>
<g id="_x31_7_frog_x2C__princess_x2C__crown_x2C__fairy_x2C__tale_x2C__legend_x2C__fantasy">
</g>
<g id="_x31_6_royal_x2C__decree_x2C__scroll_x2C__fairy_x2C__tale_x2C__legend_x2C__fantasy">
</g>
<g id="_x31_5_cup_x2C__drink_x2C__gold_x2C__fairy_x2C__tale_x2C__legend_x2C__fantasy">
</g>
<g id="_x31_4_shield_x2C__sword_x2C__fairy_x2C__tale_x2C__legend_x2C__fantasy">
</g>
<g id="_x31_3_potion_x2C__bottle_x2C__magic_x2C__fairy_x2C__tale_x2C__legend_x2C__fantasy">
</g>
<g id="_x31_2_mermaid_x2C__fish_x2C__fairy_x2C__tale_x2C__legend_x2C__fantasy">
</g>
<g id="_x31_1_knight_x2C__helmet_x2C__fairy_x2C__tale_x2C__legend_x2C__fantasy">
</g>
<g id="_x31_0_princess_x2C__crown_x2C__fairy_x2C__tale_x2C__legend_x2C__fantasy">
</g>
<g id="_x39__queen_x2C__crown_x2C__fairy_x2C__tale_x2C__legend_x2C__fantasy">
</g>
<g id="_x38__elf_x2C__flag_x2C__fairy_x2C__tale_x2C__legend_x2C__fantasy">
</g>
<g id="_x37__castle_x2C__flag_x2C__fairy_x2C__tale_x2C__legend_x2C__fantasy">
</g>
<g id="_x36__unicorn_x2C__horn_x2C__horse_x2C__fairy_x2C__tale_x2C__legend_x2C__fantasy">
</g>
<g id="_x35__book_x2C__magic_x2C__fairy_x2C__tale_x2C__legend_x2C__fantasy">
	<g>
		<g>
			<path fill="#967ADC" d="M51,52c0,2.211-1.79,4-4,4V46c2.21,0,4-0.789,4-3V52z"/>
		</g>
		<g>
			<polygon fill="#ED5565" points="29,56 29,58 26,57 23,58 23,56 23,51 29,51 			"/>
		</g>
		<g>
			<path fill="#E6E9ED" d="M23,51v5h-5c-2.76,0-5-2.24-5-5c0-2.77,2.24-5,5-5h3h26v10H29v-5H23z"/>
		</g>
		<g>
			<path fill="#656D78" d="M21,10v9h-3c-2.76,0-5,2.24-5,5v-9c0-2.76,2.24-5,5-5H21z"/>
		</g>
		<g>
			<path fill="#656D78" d="M18,19h3v9h-3c-2.76,0-5,2.24-5,5v-9C13,21.24,15.24,19,18,19z"/>
		</g>
		<g>
			<path fill="#656D78" d="M18,28h3v9h-3c-2.76,0-5,2.24-5,5v-9C13,30.24,15.24,28,18,28z"/>
		</g>
		<g>
			<path fill="#656D78" d="M18,37h3v9h-3c-2.76,0-5,2.23-5,5v-9C13,39.24,15.24,37,18,37z"/>
		</g>
		<g>
			<path fill="#FFCE54" d="M36,26c1.1,0,2,0.9,2,2s-0.9,2-2,2s-2-0.9-2-2S34.9,26,36,26z"/>
		</g>
		<g>
			<path fill="#F6BB42" d="M36,30c1.1,0,2-0.9,2-2s-0.9-2-2-2s-2,0.9-2,2S34.9,30,36,30z M40.24,23.76C41.33,24.84,42,26.34,42,28
				c0,1.66-0.67,3.16-1.76,4.24C39.16,33.33,37.66,34,36,34s-3.16-0.67-4.24-1.76C30.67,31.16,30,29.66,30,28
				c0-1.66,0.67-3.16,1.76-4.24C32.84,22.67,34.34,22,36,22S39.16,22.67,40.24,23.76z"/>
		</g>
		<g>
			<path fill="#FFCE54" d="M42,28c0-1.66-0.67-3.16-1.76-4.24C39.16,22.67,37.66,22,36,22s-3.16,0.67-4.24,1.76
				C30.67,24.84,30,26.34,30,28c0,1.66,0.67,3.16,1.76,4.24C32.84,33.33,34.34,34,36,34s3.16-0.67,4.24-1.76
				C41.33,31.16,42,29.66,42,28z M36,18c5.52,0,10,4.48,10,10c0,5.52-4.48,10-10,10s-10-4.48-10-10C26,22.48,30.48,18,36,18z"/>
		</g>
		<g>
			<path fill="#AC92EC" d="M51,14v29c0,2.211-1.79,3-4,3H21v-9v-9v-9v-9h26C49.21,10,51,11.79,51,14z M46,28c0-5.52-4.48-10-10-10
				s-10,4.48-10,10c0,5.52,4.48,10,10,10S46,33.52,46,28z"/>
		</g>
	</g>
	<g>
		<g>
			<g>
				<path d="M18.002,57C14.692,57,12,54.308,12,50.998s2.692-6.002,6.002-6.002c0.553,0,1,0.447,1,1s-0.447,1-1,1
					c-2.207,0-4.002,1.795-4.002,4.002S15.795,55,18.002,55c0.553,0,1,0.447,1,1S18.555,57,18.002,57z"/>
			</g>
			<g>
				<path d="M13,16c-0.553,0-1-0.448-1-1C12,11.691,14.692,9,18.002,9c0.553,0,1,0.448,1,1s-0.447,1-1,1C15.795,11,14,12.794,14,15
					C14,15.553,13.553,16,13,16z"/>
			</g>
			<g>
				<path d="M13,25c-0.553,0-1-0.448-1-1C12,20.691,14.692,18,18.002,18c0.553,0,1,0.448,1,1s-0.447,1-1,1
					C15.795,20,14,21.794,14,24C14,24.553,13.553,25,13,25z"/>
			</g>
			<g>
				<path d="M13,34c-0.553,0-1-0.447-1-1c0-3.309,2.692-6,6.002-6c0.553,0,1,0.448,1,1s-0.447,1-1,1C15.795,29,14,30.794,14,33
					C14,33.553,13.553,34,13,34z"/>
			</g>
			<g>
				<path d="M13,43c-0.553,0-1-0.447-1-1c0-3.309,2.692-6,6.002-6c0.553,0,1,0.447,1,1s-0.447,1-1,1C15.795,38,14,39.794,14,42
					C14,42.553,13.553,43,13,43z"/>
			</g>
			<g>
				<path d="M23,57h-5c-0.553,0-1-0.447-1-1s0.447-1,1-1h5c0.553,0,1,0.447,1,1S23.553,57,23,57z"/>
			</g>
			<g>
				<path d="M47,57c-0.553,0-1-0.447-1-1s0.447-1,1-1c1.654,0,3-1.346,3-3c0-0.553,0.447-1,1-1s1,0.447,1,1
					C52,54.757,49.757,57,47,57z"/>
			</g>
			<g>
				<path d="M47,47H18c-0.553,0-1-0.447-1-1s0.447-1,1-1h29c0.553,0,1,0.447,1,1S47.553,47,47,47z"/>
			</g>
			<g>
				<path d="M47,11H18c-0.553,0-1-0.448-1-1s0.447-1,1-1h29c0.553,0,1,0.448,1,1S47.553,11,47,11z"/>
			</g>
			<g>
				<path d="M47,47c-0.553,0-1-0.447-1-1s0.447-1,1-1c3,0,3-1.505,3-2c0-0.553,0.447-1,1-1s1,0.447,1,1C52,45.505,50.131,47,47,47z"
					/>
			</g>
			<g>
				<path d="M51,15c-0.553,0-1-0.448-1-1c0-1.654-1.346-3-3-3c-0.553,0-1-0.448-1-1s0.447-1,1-1c2.757,0,5,2.243,5,5
					C52,14.552,51.553,15,51,15z"/>
			</g>
			<g>
				<path d="M51,53c-0.553,0-1-0.447-1-1V14c0-0.552,0.447-1,1-1s1,0.448,1,1v38C52,52.553,51.553,53,51,53z"/>
			</g>
			<g>
				<path d="M47,57c-0.553,0-1-0.447-1-1V46c0-0.553,0.447-1,1-1s1,0.447,1,1v10C48,56.553,47.553,57,47,57z"/>
			</g>
			<g>
				<path d="M31,52H21c-0.553,0-1-0.447-1-1s0.447-1,1-1h10c0.553,0,1,0.447,1,1S31.553,52,31,52z"/>
			</g>
			<g>
				<path d="M23,59c-0.553,0-1-0.447-1-1v-7c0-0.553,0.447-1,1-1s1,0.447,1,1v7C24,58.553,23.553,59,23,59z"/>
			</g>
			<g>
				<path d="M29,59c-0.553,0-1-0.447-1-1v-7c0-0.553,0.447-1,1-1s1,0.447,1,1v7C30,58.553,29.553,59,29,59z"/>
			</g>
			<g>
				<path d="M29,59c-0.104,0-0.211-0.017-0.316-0.052l-3-1c-0.523-0.174-0.807-0.74-0.632-1.265
					c0.175-0.523,0.736-0.809,1.265-0.632l3,1c0.523,0.174,0.807,0.74,0.632,1.265C29.809,58.735,29.419,59,29,59z"/>
			</g>
			<g>
				<path d="M23,59c-0.419,0-0.809-0.265-0.948-0.684c-0.175-0.524,0.108-1.091,0.632-1.265l3-1c0.527-0.177,1.09,0.108,1.265,0.632
					c0.175,0.524-0.108,1.091-0.632,1.265l-3,1C23.211,58.983,23.104,59,23,59z"/>
			</g>
			<g>
				<path d="M47,57H29c-0.553,0-1-0.447-1-1s0.447-1,1-1h18c0.553,0,1,0.447,1,1S47.553,57,47,57z"/>
			</g>
			<g>
				<path d="M13,51.998c-0.553,0-1-0.447-1-1V15c0-0.552,0.447-1,1-1s1,0.448,1,1v35.998C14,51.551,13.553,51.998,13,51.998z"/>
			</g>
			<g>
				<path d="M21,46.998c-0.553,0-1-0.447-1-1V10c0-0.552,0.447-1,1-1s1,0.448,1,1v35.998C22,46.551,21.553,46.998,21,46.998z"/>
			</g>
			<g>
				<path d="M21,20h-2.998c-0.553,0-1-0.448-1-1s0.447-1,1-1H21c0.553,0,1,0.448,1,1S21.553,20,21,20z"/>
			</g>
			<g>
				<path d="M21,29h-2.998c-0.553,0-1-0.448-1-1s0.447-1,1-1H21c0.553,0,1,0.448,1,1S21.553,29,21,29z"/>
			</g>
			<g>
				<path d="M21,38h-2.998c-0.553,0-1-0.447-1-1s0.447-1,1-1H21c0.553,0,1,0.447,1,1S21.553,38,21,38z"/>
			</g>
		</g>
		<g>
			<path d="M36,39c-6.065,0-11-4.935-11-11c0-6.065,4.935-11,11-11s11,4.935,11,11C47,34.065,42.065,39,36,39z M36,19
				c-4.963,0-9,4.038-9,9c0,4.963,4.037,9,9,9s9-4.038,9-9C45,23.037,40.963,19,36,19z"/>
		</g>
		<g>
			<path d="M36,35c-3.859,0-7-3.141-7-7s3.141-7,7-7s7,3.14,7,7S39.859,35,36,35z M36,23c-2.757,0-5,2.243-5,5c0,2.757,2.243,5,5,5
				s5-2.243,5-5C41,25.243,38.757,23,36,23z"/>
		</g>
		<g>
			<path d="M36,31c-1.654,0-3-1.346-3-3s1.346-3,3-3s3,1.346,3,3S37.654,31,36,31z M36,27c-0.552,0-1,0.449-1,1s0.448,1,1,1
				s1-0.449,1-1S36.552,27,36,27z"/>
		</g>
		<g>
			<path d="M36,36c-0.553,0-1-0.447-1-1v-2c0-0.552,0.447-1,1-1s1,0.448,1,1v2C37,35.553,36.553,36,36,36z"/>
		</g>
		<g>
			<path d="M36,24c-0.553,0-1-0.448-1-1v-2c0-0.552,0.447-1,1-1s1,0.448,1,1v2C37,23.553,36.553,24,36,24z"/>
		</g>
		<g>
			<path d="M40.949,33.949c-0.256,0-0.512-0.097-0.707-0.292l-1.414-1.415c-0.391-0.391-0.391-1.023,0-1.414s1.023-0.391,1.414,0
				l1.414,1.414c0.391,0.391,0.391,1.024,0,1.415C41.461,33.853,41.205,33.949,40.949,33.949z"/>
		</g>
		<g>
			<path d="M32.465,25.465c-0.256,0-0.512-0.098-0.707-0.293l-1.414-1.415c-0.391-0.391-0.391-1.024,0-1.415
				c0.391-0.39,1.023-0.39,1.414,0l1.414,1.415c0.391,0.391,0.391,1.024,0,1.415C32.977,25.368,32.721,25.465,32.465,25.465z"/>
		</g>
		<g>
			<path d="M43,29.001h-2c-0.553,0-1-0.448-1-1s0.447-1,1-1h2c0.553,0,1,0.448,1,1S43.553,29.001,43,29.001z"/>
		</g>
		<g>
			<path d="M31,29.001C31,29.001,31,29.001,31,29.001L28.999,29C28.447,29,28,28.552,28,28s0.448-1,1-1c0,0,0,0,0.001,0l2,0.001
				c0.552,0,0.999,0.448,0.999,1S31.552,29.001,31,29.001z"/>
		</g>
		<g>
			<path d="M39.535,25.466c-0.256,0-0.512-0.098-0.707-0.293c-0.391-0.391-0.391-1.023,0-1.414l1.415-1.415
				c0.391-0.391,1.023-0.391,1.414,0s0.391,1.023,0,1.414l-1.415,1.415C40.047,25.369,39.791,25.466,39.535,25.466z"/>
		</g>
		<g>
			<path d="M31.05,33.95c-0.256,0-0.512-0.098-0.707-0.293c-0.391-0.391-0.391-1.023,0-1.414l1.415-1.414
				c0.391-0.39,1.023-0.39,1.414,0s0.391,1.024,0,1.415l-1.415,1.414C31.562,33.854,31.306,33.95,31.05,33.95z"/>
		</g>
		<g>
			<g>
				<g>
					<path d="M61,11c-0.553,0-1-0.448-1-1V6c0-0.552,0.447-1,1-1s1,0.448,1,1v4C62,10.552,61.553,11,61,11z"/>
				</g>
				<g>
					<path d="M62,9h-2c-0.553,0-1-0.448-1-1s0.447-1,1-1h2c0.553,0,1,0.448,1,1S62.553,9,62,9z"/>
				</g>
			</g>
			<g>
				<g>
					<path d="M5,60c-0.553,0-1-0.447-1-1v-4c0-0.553,0.447-1,1-1s1,0.447,1,1v4C6,59.553,5.553,60,5,60z"/>
				</g>
				<g>
					<path d="M6,58H4c-0.553,0-1-0.447-1-1s0.447-1,1-1h2c0.553,0,1,0.447,1,1S6.553,58,6,58z"/>
				</g>
			</g>
			<g>
				<g>
					<path d="M7,12c-0.553,0-1-0.448-1-1V5c0-0.552,0.447-1,1-1s1,0.448,1,1v6C8,11.552,7.553,12,7,12z"/>
				</g>
				<g>
					<path d="M8,9H6C5.447,9,5,8.553,5,8s0.447-1,1-1h2c0.553,0,1,0.448,1,1S8.553,9,8,9z"/>
				</g>
			</g>
			<g>
				<g>
					<path d="M59,62c-0.553,0-1-0.447-1-1v-6c0-0.553,0.447-1,1-1s1,0.447,1,1v6C60,61.553,59.553,62,59,62z"/>
				</g>
				<g>
					<path d="M60,59h-2c-0.553,0-1-0.447-1-1s0.447-1,1-1h2c0.553,0,1,0.447,1,1S60.553,59,60,59z"/>
				</g>
			</g>
			<g>
				<path d="M45.03,6c-0.553,0-1.005-0.448-1.005-1s0.442-1,0.994-1h0.011c0.552,0,1,0.448,1,1S45.582,6,45.03,6z"/>
			</g>
			<g>
				<path d="M57.03,26c-0.553,0-1.005-0.448-1.005-1s0.442-1,0.994-1h0.011c0.552,0,1,0.448,1,1S57.582,26,57.03,26z"/>
			</g>
			<g>
				<path d="M1.03,26c-0.553,0-1.005-0.448-1.005-1s0.442-1,0.994-1H1.03c0.552,0,1,0.448,1,1S1.582,26,1.03,26z"/>
			</g>
			<g>
				<path d="M63.03,43c-0.553,0-1.005-0.447-1.005-1s0.442-1,0.994-1h0.011c0.552,0,1,0.447,1,1S63.582,43,63.03,43z"/>
			</g>
			<g>
				<path d="M7.03,42c-0.553,0-1.005-0.447-1.005-1s0.442-1,0.994-1H7.03c0.552,0,1,0.447,1,1S7.582,42,7.03,42z"/>
			</g>
			<g>
				<path d="M38.03,62c-0.553,0-1.005-0.447-1.005-1s0.442-1,0.994-1h0.011c0.552,0,1,0.447,1,1S38.582,62,38.03,62z"/>
			</g>
			<g>
				<path d="M26.03,4c-0.553,0-1.005-0.448-1.005-1s0.442-1,0.994-1h0.011c0.552,0,1,0.448,1,1S26.582,4,26.03,4z"/>
			</g>
		</g>
	</g>
</g>
<g id="_x34__dragon_x2C__fire_x2C__fairy_x2C__tale_x2C__legend_x2C__fantasy">
</g>
<g id="_x33__sword_x2C__duel_x2C__war_x2C__fairy_x2C__tale_x2C__legend_x2C__fantasy">
</g>
<g id="_x32__crown_x2C__king_x2C__fairy_x2C__tale_x2C__legend_x2C__fantasy">
</g>
<g id="_x31__king_x2C__crown_x2C__fairy_x2C__tale_x2C__legend_x2C__fantasy">
</g>
</svg>
